<svg width="30" height="30" viewBox="0 0 30 30" fill="none" xmlns="http://www.w3.org/2000/svg">
<circle cx="15" cy="15" r="15" fill="white"/>
<path d="M17.1632 18.4897C16.4552 18.9202 15.9392 19.5532 15.6482 20.2687C14.2277 19.3297 12.9992 18.0562 12.0902 16.4812C11.1812 14.9062 10.6922 13.2037 10.5887 11.5057C11.3537 11.6107 12.1607 11.4802 12.8867 11.0827L13.7357 5.12915C13.3982 4.79315 13.0037 4.53065 12.5777 4.34615C11.5277 3.89315 10.2842 3.92615 9.21765 4.54115C8.32065 5.05865 7.71765 5.89115 7.47015 6.81815H7.46565C6.43515 10.5517 6.84465 14.6812 8.93415 18.3007C11.0237 21.9202 14.3957 24.3412 18.1457 25.3146V25.3102C19.0727 25.5576 20.0957 25.4527 20.9927 24.9352C22.0592 24.3202 22.7087 23.2582 22.8422 22.1227C22.8962 21.6622 22.8662 21.1897 22.7432 20.7277L17.1632 18.4867V18.4897Z" fill="#0049F8"/>
</svg>
