<svg width="18" height="20" viewBox="0 0 18 20" fill="none" xmlns="http://www.w3.org/2000/svg">
<path fill-rule="evenodd" clip-rule="evenodd" d="M5.44539 1L11.6747 1L12.6123 3.00009H4.5078L5.44539 1ZM4.53994 0.575547C4.70459 0.224324 5.0575 0 5.44539 0H11.6747C12.0626 0 12.4155 0.224323 12.5802 0.575546L12.7793 1.00029V1H14.0608C15.7176 1 17.0608 2.34315 17.0608 4V17.0004C17.0608 18.6572 15.7176 20.0004 14.0608 20.0004H3.05957C1.40271 20.0004 0.0595703 18.6572 0.0595703 17.0004V4C0.0595703 2.34315 1.40271 1 3.05957 1H4.34097L4.53994 0.575547ZM3.5066 3H3.05957C2.50729 3 2.05957 3.44771 2.05957 4V17.0004C2.05957 17.5527 2.50729 18.0004 3.05957 18.0004H14.0608C14.6131 18.0004 15.0608 17.5527 15.0608 17.0004V4C15.0608 3.44772 14.6131 3 14.0608 3H13.6135C13.6136 3.52588 13.1903 4.00009 12.6123 4.00009H4.5078C3.9298 4.00009 3.50654 3.52588 3.5066 3ZM8.56028 7.00047C8.56028 6.44819 9.008 6.00012 9.56028 6.00012H12.2482C12.8004 6.00012 13.2482 6.44819 13.2482 7.00047C13.2482 7.55276 12.8004 8.00082 12.2482 8.00082H9.56028C9.008 8.00082 8.56028 7.55276 8.56028 7.00047ZM9.56028 10.0001C9.008 10.0001 8.56028 10.4482 8.56028 11.0005C8.56028 11.5528 9.008 12.0008 9.56028 12.0008H12.2482C12.8004 12.0008 13.2482 11.5528 13.2482 11.0005C13.2482 10.4482 12.8004 10.0001 12.2482 10.0001H9.56028ZM8.56028 15.0007C8.56028 14.4484 9.008 14.0004 9.56028 14.0004H12.2482C12.8004 14.0004 13.2482 14.4484 13.2482 15.0007C13.2482 15.553 12.8004 16.0011 12.2482 16.0011H9.56028C9.008 16.0011 8.56028 15.553 8.56028 15.0007ZM7.50131 5.64351L7.62262 5.52969L7.06022 5.00024L6.93891 5.11407L4.99713 6.94204L4.43473 6.41259L3.87232 6.94241L4.43473 7.47185L4.99713 8.0013L5.55954 7.47148L7.50131 5.64351ZM7.62262 9.52969L7.50131 9.64351L5.55954 11.4715L4.99713 12.0013L4.43473 11.4719L3.87232 10.9424L4.43473 10.4126L4.99713 10.942L6.93891 9.11407L7.06022 9.00024L7.62262 9.52969ZM7.50131 13.6436L7.62262 13.5298L7.06022 13.0004L6.93891 13.1142L4.99713 14.9422L4.43473 14.4127L3.87232 14.9425L4.43473 15.472L4.99713 16.0014L5.55954 15.4716L7.50131 13.6436Z" fill="#191919"/>
</svg>
